# MagicaVoxel @ Ephtracy

# group
g Torch

# material
mtllib Torch.mtl
usemtl palette

# normals
vn -1 0 0
vn 1 0 0
vn 0 0 1
vn 0 0 -1
vn 0 -1 0
vn 0 1 0

# texcoords
vt 0.982422 0.5
vt 0.986328 0.5

# verts
v 9 14 17
v 9 14 16
v 9 15 17
v 9 15 16
v 10 13 17
v 10 13 16
v 10 14 18
v 10 14 17
v 10 14 16
v 10 14 11
v 10 15 18
v 10 15 17
v 10 15 16
v 10 15 11
v 10 16 17
v 10 16 16
v 13 14 19
v 13 14 18
v 13 15 19
v 13 15 18
v 14 13 19
v 14 13 18
v 14 14 20
v 14 14 19
v 14 14 18
v 14 14 12
v 14 14 11
v 14 14 -10
v 14 14 -11
v 14 14 -12
v 14 14 -13
v 14 14 -14
v 14 14 -15
v 14 14 -20
v 14 15 20
v 14 15 19
v 14 15 18
v 14 15 12
v 14 15 11
v 14 15 -10
v 14 15 -11
v 14 15 -12
v 14 15 -13
v 14 15 -14
v 14 15 -15
v 14 15 -20
v 14 16 19
v 14 16 18
v 17 14 15
v 17 14 14
v 17 15 15
v 17 15 14
v 18 13 15
v 18 13 14
v 18 14 16
v 18 14 15
v 18 14 14
v 18 14 12
v 18 15 16
v 18 15 15
v 18 15 14
v 18 15 12
v 18 16 15
v 18 16 14
v 11 13 17
v 11 13 16
v 11 14 18
v 11 14 17
v 11 14 16
v 11 14 12
v 11 15 18
v 11 15 17
v 11 15 16
v 11 15 12
v 11 16 17
v 11 16 16
v 12 14 17
v 12 14 16
v 12 15 17
v 12 15 16
v 15 13 19
v 15 13 18
v 15 14 20
v 15 14 19
v 15 14 18
v 15 14 12
v 15 14 11
v 15 14 -10
v 15 14 -11
v 15 14 -12
v 15 14 -13
v 15 14 -14
v 15 14 -15
v 15 14 -20
v 15 15 20
v 15 15 19
v 15 15 18
v 15 15 12
v 15 15 11
v 15 15 -10
v 15 15 -11
v 15 15 -12
v 15 15 -13
v 15 15 -14
v 15 15 -15
v 15 15 -20
v 15 16 19
v 15 16 18
v 16 14 19
v 16 14 18
v 16 15 19
v 16 15 18
v 19 13 15
v 19 13 14
v 19 14 16
v 19 14 15
v 19 14 14
v 19 14 11
v 19 15 16
v 19 15 15
v 19 15 14
v 19 15 11
v 19 16 15
v 19 16 14
v 20 14 15
v 20 14 14
v 20 15 15
v 20 15 14
v 14 14 20
v 14 15 20
v 15 14 20
v 15 15 20
v 13 14 19
v 13 15 19
v 14 13 19
v 14 14 19
v 14 15 19
v 14 16 19
v 15 13 19
v 15 14 19
v 15 15 19
v 15 16 19
v 16 14 19
v 16 15 19
v 10 14 18
v 10 15 18
v 11 14 18
v 11 15 18
v 9 14 17
v 9 15 17
v 10 13 17
v 10 14 17
v 10 15 17
v 10 16 17
v 11 13 17
v 11 14 17
v 11 15 17
v 11 16 17
v 12 14 17
v 12 15 17
v 18 14 16
v 18 15 16
v 19 14 16
v 19 15 16
v 17 14 15
v 17 15 15
v 18 13 15
v 18 14 15
v 18 15 15
v 18 16 15
v 19 13 15
v 19 14 15
v 19 15 15
v 19 16 15
v 20 14 15
v 20 15 15
v 11 14 12
v 11 15 12
v 14 14 12
v 14 15 12
v 15 14 12
v 15 15 12
v 18 14 12
v 18 15 12
v 14 14 -11
v 14 15 -11
v 15 14 -11
v 15 15 -11
v 14 14 -13
v 14 15 -13
v 15 14 -13
v 15 15 -13
v 14 14 -15
v 14 15 -15
v 15 14 -15
v 15 15 -15
v 13 14 18
v 13 15 18
v 14 13 18
v 14 14 18
v 14 15 18
v 14 16 18
v 15 13 18
v 15 14 18
v 15 15 18
v 15 16 18
v 16 14 18
v 16 15 18
v 9 14 16
v 9 15 16
v 10 13 16
v 10 14 16
v 10 15 16
v 10 16 16
v 11 13 16
v 11 14 16
v 11 15 16
v 11 16 16
v 12 14 16
v 12 15 16
v 17 14 14
v 17 15 14
v 18 13 14
v 18 14 14
v 18 15 14
v 18 16 14
v 19 13 14
v 19 14 14
v 19 15 14
v 19 16 14
v 20 14 14
v 20 15 14
v 10 14 11
v 10 15 11
v 14 14 11
v 14 15 11
v 15 14 11
v 15 15 11
v 19 14 11
v 19 15 11
v 14 14 -10
v 14 15 -10
v 15 14 -10
v 15 15 -10
v 14 14 -12
v 14 15 -12
v 15 14 -12
v 15 15 -12
v 14 14 -14
v 14 15 -14
v 15 14 -14
v 15 15 -14
v 14 14 -20
v 14 15 -20
v 15 14 -20
v 15 15 -20
v 14 13 19
v 15 13 19
v 14 13 18
v 15 13 18
v 10 13 17
v 11 13 17
v 10 13 16
v 11 13 16
v 18 13 15
v 19 13 15
v 18 13 14
v 19 13 14
v 14 14 20
v 15 14 20
v 13 14 19
v 14 14 19
v 15 14 19
v 16 14 19
v 10 14 18
v 11 14 18
v 13 14 18
v 14 14 18
v 15 14 18
v 16 14 18
v 9 14 17
v 10 14 17
v 11 14 17
v 12 14 17
v 9 14 16
v 10 14 16
v 11 14 16
v 12 14 16
v 18 14 16
v 19 14 16
v 17 14 15
v 18 14 15
v 19 14 15
v 20 14 15
v 17 14 14
v 18 14 14
v 19 14 14
v 20 14 14
v 11 14 12
v 14 14 12
v 15 14 12
v 18 14 12
v 10 14 11
v 14 14 11
v 15 14 11
v 19 14 11
v 14 14 -10
v 15 14 -10
v 14 14 -11
v 15 14 -11
v 14 14 -12
v 15 14 -12
v 14 14 -13
v 15 14 -13
v 14 14 -14
v 15 14 -14
v 14 14 -15
v 15 14 -15
v 14 14 -20
v 15 14 -20
v 14 15 20
v 15 15 20
v 13 15 19
v 14 15 19
v 15 15 19
v 16 15 19
v 10 15 18
v 11 15 18
v 13 15 18
v 14 15 18
v 15 15 18
v 16 15 18
v 9 15 17
v 10 15 17
v 11 15 17
v 12 15 17
v 9 15 16
v 10 15 16
v 11 15 16
v 12 15 16
v 18 15 16
v 19 15 16
v 17 15 15
v 18 15 15
v 19 15 15
v 20 15 15
v 17 15 14
v 18 15 14
v 19 15 14
v 20 15 14
v 11 15 12
v 14 15 12
v 15 15 12
v 18 15 12
v 10 15 11
v 14 15 11
v 15 15 11
v 19 15 11
v 14 15 -10
v 15 15 -10
v 14 15 -11
v 15 15 -11
v 14 15 -12
v 15 15 -12
v 14 15 -13
v 15 15 -13
v 14 15 -14
v 15 15 -14
v 14 15 -15
v 15 15 -15
v 14 15 -20
v 15 15 -20
v 14 16 19
v 15 16 19
v 14 16 18
v 15 16 18
v 10 16 17
v 11 16 17
v 10 16 16
v 11 16 16
v 18 16 15
v 19 16 15
v 18 16 14
v 19 16 14

# faces
f 3/2/1 2/2/1 1/2/1
f 4/2/1 2/2/1 3/2/1
f 8/2/1 6/2/1 5/2/1
f 9/2/1 6/2/1 8/2/1
f 11/2/1 8/2/1 7/2/1
f 12/2/1 8/2/1 11/2/1
f 13/2/1 10/2/1 9/2/1
f 14/2/1 10/2/1 13/2/1
f 15/2/1 13/2/1 12/2/1
f 16/2/1 13/2/1 15/2/1
f 19/2/1 18/2/1 17/2/1
f 20/2/1 18/2/1 19/2/1
f 24/2/1 22/2/1 21/2/1
f 25/2/1 22/2/1 24/2/1
f 35/2/1 24/2/1 23/2/1
f 36/2/1 24/2/1 35/2/1
f 37/2/1 26/2/1 25/2/1
f 38/2/1 26/2/1 37/2/1
f 39/1/1 28/1/1 27/1/1
f 40/1/1 28/1/1 39/1/1
f 41/1/1 30/1/1 29/1/1
f 42/1/1 30/1/1 41/1/1
f 43/1/1 32/1/1 31/1/1
f 44/1/1 32/1/1 43/1/1
f 45/1/1 34/1/1 33/1/1
f 46/1/1 34/1/1 45/1/1
f 47/2/1 37/2/1 36/2/1
f 48/2/1 37/2/1 47/2/1
f 51/2/1 50/2/1 49/2/1
f 52/2/1 50/2/1 51/2/1
f 56/2/1 54/2/1 53/2/1
f 57/2/1 54/2/1 56/2/1
f 59/2/1 56/2/1 55/2/1
f 60/2/1 56/2/1 59/2/1
f 61/2/1 58/2/1 57/2/1
f 62/2/1 58/2/1 61/2/1
f 63/2/1 61/2/1 60/2/1
f 64/2/1 61/2/1 63/2/1
f 65/2/2 66/2/2 68/2/2
f 68/2/2 66/2/2 69/2/2
f 67/2/2 68/2/2 71/2/2
f 71/2/2 68/2/2 72/2/2
f 69/2/2 70/2/2 73/2/2
f 73/2/2 70/2/2 74/2/2
f 72/2/2 73/2/2 75/2/2
f 75/2/2 73/2/2 76/2/2
f 77/2/2 78/2/2 79/2/2
f 79/2/2 78/2/2 80/2/2
f 81/2/2 82/2/2 84/2/2
f 84/2/2 82/2/2 85/2/2
f 83/2/2 84/2/2 95/2/2
f 95/2/2 84/2/2 96/2/2
f 85/2/2 86/2/2 97/2/2
f 97/2/2 86/2/2 98/2/2
f 87/1/2 88/1/2 99/1/2
f 99/1/2 88/1/2 100/1/2
f 89/1/2 90/1/2 101/1/2
f 101/1/2 90/1/2 102/1/2
f 91/1/2 92/1/2 103/1/2
f 103/1/2 92/1/2 104/1/2
f 93/1/2 94/1/2 105/1/2
f 105/1/2 94/1/2 106/1/2
f 96/2/2 97/2/2 107/2/2
f 107/2/2 97/2/2 108/2/2
f 109/2/2 110/2/2 111/2/2
f 111/2/2 110/2/2 112/2/2
f 113/2/2 114/2/2 116/2/2
f 116/2/2 114/2/2 117/2/2
f 115/2/2 116/2/2 119/2/2
f 119/2/2 116/2/2 120/2/2
f 117/2/2 118/2/2 121/2/2
f 121/2/2 118/2/2 122/2/2
f 120/2/2 121/2/2 123/2/2
f 123/2/2 121/2/2 124/2/2
f 125/2/2 126/2/2 127/2/2
f 127/2/2 126/2/2 128/2/2
f 131/2/3 130/2/3 129/2/3
f 132/2/3 130/2/3 131/2/3
f 136/2/3 134/2/3 133/2/3
f 137/2/3 134/2/3 136/2/3
f 139/2/3 136/2/3 135/2/3
f 140/2/3 136/2/3 139/2/3
f 141/2/3 138/2/3 137/2/3
f 142/2/3 138/2/3 141/2/3
f 143/2/3 141/2/3 140/2/3
f 144/2/3 141/2/3 143/2/3
f 147/2/3 146/2/3 145/2/3
f 148/2/3 146/2/3 147/2/3
f 152/2/3 150/2/3 149/2/3
f 153/2/3 150/2/3 152/2/3
f 155/2/3 152/2/3 151/2/3
f 156/2/3 152/2/3 155/2/3
f 157/2/3 154/2/3 153/2/3
f 158/2/3 154/2/3 157/2/3
f 159/2/3 157/2/3 156/2/3
f 160/2/3 157/2/3 159/2/3
f 163/2/3 162/2/3 161/2/3
f 164/2/3 162/2/3 163/2/3
f 168/2/3 166/2/3 165/2/3
f 169/2/3 166/2/3 168/2/3
f 171/2/3 168/2/3 167/2/3
f 172/2/3 168/2/3 171/2/3
f 173/2/3 170/2/3 169/2/3
f 174/2/3 170/2/3 173/2/3
f 175/2/3 173/2/3 172/2/3
f 176/2/3 173/2/3 175/2/3
f 179/2/3 178/2/3 177/2/3
f 180/2/3 178/2/3 179/2/3
f 183/2/3 182/2/3 181/2/3
f 184/2/3 182/2/3 183/2/3
f 187/1/3 186/1/3 185/1/3
f 188/1/3 186/1/3 187/1/3
f 191/1/3 190/1/3 189/1/3
f 192/1/3 190/1/3 191/1/3
f 195/1/3 194/1/3 193/1/3
f 196/1/3 194/1/3 195/1/3
f 197/2/4 198/2/4 200/2/4
f 200/2/4 198/2/4 201/2/4
f 199/2/4 200/2/4 203/2/4
f 203/2/4 200/2/4 204/2/4
f 201/2/4 202/2/4 205/2/4
f 205/2/4 202/2/4 206/2/4
f 204/2/4 205/2/4 207/2/4
f 207/2/4 205/2/4 208/2/4
f 209/2/4 210/2/4 212/2/4
f 212/2/4 210/2/4 213/2/4
f 211/2/4 212/2/4 215/2/4
f 215/2/4 212/2/4 216/2/4
f 213/2/4 214/2/4 217/2/4
f 217/2/4 214/2/4 218/2/4
f 216/2/4 217/2/4 219/2/4
f 219/2/4 217/2/4 220/2/4
f 221/2/4 222/2/4 224/2/4
f 224/2/4 222/2/4 225/2/4
f 223/2/4 224/2/4 227/2/4
f 227/2/4 224/2/4 228/2/4
f 225/2/4 226/2/4 229/2/4
f 229/2/4 226/2/4 230/2/4
f 228/2/4 229/2/4 231/2/4
f 231/2/4 229/2/4 232/2/4
f 233/2/4 234/2/4 235/2/4
f 235/2/4 234/2/4 236/2/4
f 237/2/4 238/2/4 239/2/4
f 239/2/4 238/2/4 240/2/4
f 241/1/4 242/1/4 243/1/4
f 243/1/4 242/1/4 244/1/4
f 245/1/4 246/1/4 247/1/4
f 247/1/4 246/1/4 248/1/4
f 249/1/4 250/1/4 251/1/4
f 251/1/4 250/1/4 252/1/4
f 253/1/4 254/1/4 255/1/4
f 255/1/4 254/1/4 256/1/4
f 259/2/5 258/2/5 257/2/5
f 260/2/5 258/2/5 259/2/5
f 263/2/5 262/2/5 261/2/5
f 264/2/5 262/2/5 263/2/5
f 267/2/5 266/2/5 265/2/5
f 268/2/5 266/2/5 267/2/5
f 272/2/5 270/2/5 269/2/5
f 273/2/5 270/2/5 272/2/5
f 277/2/5 272/2/5 271/2/5
f 278/2/5 272/2/5 277/2/5
f 279/2/5 274/2/5 273/2/5
f 280/2/5 274/2/5 279/2/5
f 282/2/5 276/2/5 275/2/5
f 283/2/5 276/2/5 282/2/5
f 285/2/5 282/2/5 281/2/5
f 286/2/5 282/2/5 285/2/5
f 287/2/5 284/2/5 283/2/5
f 288/2/5 284/2/5 287/2/5
f 292/2/5 290/2/5 289/2/5
f 293/2/5 290/2/5 292/2/5
f 295/2/5 292/2/5 291/2/5
f 296/2/5 292/2/5 295/2/5
f 297/2/5 294/2/5 293/2/5
f 298/2/5 294/2/5 297/2/5
f 299/2/5 287/2/5 286/2/5
f 300/2/5 279/2/5 278/2/5
f 301/2/5 279/2/5 300/2/5
f 302/2/5 297/2/5 296/2/5
f 303/2/5 299/2/5 286/2/5
f 303/2/5 302/2/5 301/2/5
f 303/2/5 301/2/5 300/2/5
f 303/2/5 300/2/5 299/2/5
f 304/2/5 302/2/5 303/2/5
f 305/2/5 302/2/5 304/2/5
f 306/2/5 297/2/5 302/2/5
f 306/2/5 302/2/5 305/2/5
f 307/1/5 305/1/5 304/1/5
f 308/1/5 305/1/5 307/1/5
f 311/1/5 310/1/5 309/1/5
f 312/1/5 310/1/5 311/1/5
f 315/1/5 314/1/5 313/1/5
f 316/1/5 314/1/5 315/1/5
f 319/1/5 318/1/5 317/1/5
f 320/1/5 318/1/5 319/1/5
f 321/2/6 322/2/6 324/2/6
f 324/2/6 322/2/6 325/2/6
f 323/2/6 324/2/6 329/2/6
f 329/2/6 324/2/6 330/2/6
f 325/2/6 326/2/6 331/2/6
f 331/2/6 326/2/6 332/2/6
f 327/2/6 328/2/6 334/2/6
f 334/2/6 328/2/6 335/2/6
f 333/2/6 334/2/6 337/2/6
f 337/2/6 334/2/6 338/2/6
f 335/2/6 336/2/6 339/2/6
f 339/2/6 336/2/6 340/2/6
f 341/2/6 342/2/6 344/2/6
f 344/2/6 342/2/6 345/2/6
f 343/2/6 344/2/6 347/2/6
f 347/2/6 344/2/6 348/2/6
f 345/2/6 346/2/6 349/2/6
f 349/2/6 346/2/6 350/2/6
f 338/2/6 339/2/6 351/2/6
f 330/2/6 331/2/6 352/2/6
f 352/2/6 331/2/6 353/2/6
f 348/2/6 349/2/6 354/2/6
f 338/2/6 351/2/6 355/2/6
f 353/2/6 354/2/6 355/2/6
f 352/2/6 353/2/6 355/2/6
f 351/2/6 352/2/6 355/2/6
f 355/2/6 354/2/6 356/2/6
f 356/2/6 354/2/6 357/2/6
f 354/2/6 349/2/6 358/2/6
f 357/2/6 354/2/6 358/2/6
f 356/1/6 357/1/6 359/1/6
f 359/1/6 357/1/6 360/1/6
f 361/1/6 362/1/6 363/1/6
f 363/1/6 362/1/6 364/1/6
f 365/1/6 366/1/6 367/1/6
f 367/1/6 366/1/6 368/1/6
f 369/1/6 370/1/6 371/1/6
f 371/1/6 370/1/6 372/1/6
f 373/2/6 374/2/6 375/2/6
f 375/2/6 374/2/6 376/2/6
f 377/2/6 378/2/6 379/2/6
f 379/2/6 378/2/6 380/2/6
f 381/2/6 382/2/6 383/2/6
f 383/2/6 382/2/6 384/2/6
